D:\school\WTK\thesis\model\3dpredictsim\Results\debug_batch\Pog_s1_tmt_aCst_d05_k800_ig24_act_TTC_GRF.mot
nRows=15
nColumns=19

name D:\school\WTK\thesis\model\3dpredictsim\Results\debug_batch\Pog_s1_tmt_aCst_d05_k800_ig24_act_TTC_GRF.mot
datacolumns 19
datarows 15
range 0.6301028177 0.8065316067
endheader
time 	ground_force_vx	ground_force_vy	ground_force_vz	ground_force_px	ground_force_py	ground_force_pz	1_ground_force_vx	1_ground_force_vy	1_ground_force_vz	1_ground_force_px	1_ground_force_py	1_ground_force_pz	ground_torque_x	ground_torque_y	ground_torque_z	1_ground_torque_x	1_ground_torque_y	1_ground_torque_z
        0.6301028177	      109.5611896435	      431.4751711505	        0.8400008926	        0.4275848631	        0.0000000000	        0.0344278561	      -35.2203613467	       28.3009300449	       -9.5852327013	        0.9947447074	        0.0000000000	       -0.0521998234	        0.0000000000	        0.0000000000	        0.0000000000	        0.0000000000	        0.0000000000	        0.0000000000	
        0.6427048741	       74.0341609174	      328.6033385211	        6.7740151337	        0.4356307798	        0.0000000000	        0.0312415909	     -109.8713152471	      115.2024218630	      -44.2906743116	        1.0024204231	        0.0000000000	       -0.0502411448	        0.0000000000	        0.0000000000	        0.0000000000	        0.0000000000	        0.0000000000	        0.0000000000	
        0.6553069305	       39.0265393167	      216.7155566324	       13.7836204474	        0.4496786813	        0.0000000000	        0.0253033170	      -59.7604402594	      312.0077013221	      -14.4931452710	        1.0076370797	        0.0000000000	       -0.0482395760	        0.0000000000	        0.0000000000	        0.0000000000	        0.0000000000	        0.0000000000	        0.0000000000	
        0.6679089868	       24.3796496533	      169.0334441746	       14.4367588989	        0.4547466761	        0.0000000000	        0.0228486862	      -64.4705654472	      528.6087342662	        6.5891064898	        1.0105915100	        0.0000000000	       -0.0480603142	        0.0000000000	        0.0000000000	        0.0000000000	        0.0000000000	        0.0000000000	        0.0000000000	
        0.6805110432	       19.2332372599	      125.2838839098	       16.6478450460	        0.4551313870	        0.0000000000	        0.0231049321	     -114.8750486769	      746.1058850853	       15.9388604642	        1.0191711721	        0.0000000000	       -0.0499106719	        0.0000000000	        0.0000000000	        0.0000000000	        0.0000000000	        0.0000000000	        0.0000000000	
        0.6931130995	        6.4801327247	       70.5212802889	       15.7613638082	        0.4551101953	        0.0000000000	        0.0234741245	     -151.0551172423	      888.7215021660	       21.0185864148	        1.0276610624	        0.0000000000	       -0.0518258097	        0.0000000000	        0.0000000000	        0.0000000000	        0.0000000000	        0.0000000000	        0.0000000000	
        0.7057151559	       -6.9887031309	       12.8176155266	        3.7789686967	        0.4518149816	        0.0000000000	        0.0232260212	     -157.0948023969	      913.0420619008	       21.5176314182	        1.0331567536	        0.0000000000	       -0.0529181220	        0.0000000000	        0.0000000000	        0.0000000000	        0.0000000000	        0.0000000000	        0.0000000000	
        0.7183172122	        0.0212928597	       -0.0177640856	        0.0008165343	        0.0000000000	        0.0000000000	        0.0000000000	     -142.2742773661	      875.7594768661	       20.6992752797	        1.0371661685	        0.0000000000	       -0.0535519846	        0.0000000000	        0.0000000000	        0.0000000000	        0.0000000000	        0.0000000000	        0.0000000000	
        0.7309192686	        0.2340392646	       -0.1655114364	        0.0164802077	        0.0000000000	        0.0000000000	        0.0000000000	     -123.1163379023	      815.1202436461	       19.6038529471	        1.0409118238	        0.0000000000	       -0.0538906635	        0.0000000000	        0.0000000000	        0.0000000000	        0.0000000000	        0.0000000000	        0.0000000000	
        0.7435213249	       -1.4917698705	        0.9267028500	       -0.1244122441	        0.0000000000	        0.0000000000	        0.0000000000	     -108.9118981496	      763.7852251508	       17.9577815650	        1.0447983556	        0.0000000000	       -0.0539702225	        0.0000000000	        0.0000000000	        0.0000000000	        0.0000000000	        0.0000000000	        0.0000000000	
        0.7561233813	       -1.5142101158	        0.8581862483	       -0.1278942269	        0.0000000000	        0.0000000000	        0.0000000000	      -96.1088371171	      728.3615535890	       17.1049828738	        1.0490354560	        0.0000000000	       -0.0538772801	        0.0000000000	        0.0000000000	        0.0000000000	        0.0000000000	        0.0000000000	        0.0000000000	
        0.7687254376	       -1.1354794222	        0.6004902975	       -0.0956585396	        0.0000000000	        0.0000000000	        0.0000000000	      -85.8275630126	      701.7474981513	       17.7764996327	        1.0539433917	        0.0000000000	       -0.0535811232	        0.0000000000	        0.0000000000	        0.0000000000	        0.0000000000	        0.0000000000	        0.0000000000	
        0.7813274940	       -0.7332226929	        0.3693419586	       -0.0586990081	        0.0000000000	        0.0000000000	        0.0000000000	      -75.9871374780	      677.7840672735	       18.5927031794	        1.0589233932	        0.0000000000	       -0.0532406399	        0.0000000000	        0.0000000000	        0.0000000000	        0.0000000000	        0.0000000000	        0.0000000000	
        0.7939295504	       -0.5038443027	        0.2437724536	       -0.0391554179	        0.0000000000	        0.0000000000	        0.0000000000	      -66.1384187041	      654.7450093236	       19.4418531710	        1.0635956933	        0.0000000000	       -0.0529808404	        0.0000000000	        0.0000000000	        0.0000000000	        0.0000000000	        0.0000000000	        0.0000000000	
        0.8065316067	       -0.3946640927	        0.1845057238	       -0.0298783789	        0.0000000000	        0.0000000000	        0.0000000000	      -57.0051926918	      634.1762879509	       19.7609913641	        1.0680617869	        0.0000000000	       -0.0528157476	        0.0000000000	        0.0000000000	        0.0000000000	        0.0000000000	        0.0000000000	        0.0000000000	
